<?xml version="1.0" encoding="utf-8" standalone="no"?>
<!DOCTYPE svg PUBLIC "-//W3C//DTD SVG 1.1//EN"
  "http://www.w3.org/Graphics/SVG/1.1/DTD/svg11.dtd">
<svg xmlns:xlink="http://www.w3.org/1999/xlink" width="460.8pt" height="345.6pt" viewBox="0 0 460.8 345.6" xmlns="http://www.w3.org/2000/svg" version="1.1">
 <metadata>
  <rdf:RDF xmlns:dc="http://purl.org/dc/elements/1.1/" xmlns:cc="http://creativecommons.org/ns#" xmlns:rdf="http://www.w3.org/1999/02/22-rdf-syntax-ns#">
   <cc:Work>
    <dc:type rdf:resource="http://purl.org/dc/dcmitype/StillImage"/>
    <dc:date>2024-01-24T16:04:44.915545</dc:date>
    <dc:format>image/svg+xml</dc:format>
    <dc:creator>
     <cc:Agent>
      <dc:title>Matplotlib v3.7.1, https://matplotlib.org/</dc:title>
     </cc:Agent>
    </dc:creator>
   </cc:Work>
  </rdf:RDF>
 </metadata>
 <defs>
  <style type="text/css">*{stroke-linejoin: round; stroke-linecap: butt}</style>
 </defs>
 <g id="figure_1">
  <g id="patch_1">
   <path d="M 0 345.6 
L 460.8 345.6 
L 460.8 0 
L 0 0 
z
" style="fill: #ffffff"/>
  </g>
  <g id="axes_1">
   <g id="patch_2">
    <path d="M 57.6 307.584 
L 414.72 307.584 
L 414.72 41.472 
L 57.6 41.472 
z
" style="fill: #ffffff"/>
   </g>
   <g id="matplotlib.axis_1">
    <g id="xtick_1">
     <g id="line2d_1">
      <defs>
       <path id="maa45b51766" d="M 0 0 
L 0 3.5 
" style="stroke: #000000; stroke-width: 0.8"/>
      </defs>
      <g>
       <use xlink:href="#maa45b51766" x="73.832727" y="307.584" style="stroke: #000000; stroke-width: 0.8"/>
      </g>
     </g>
     <g id="text_1">
      <!-- 0 -->
      <g transform="translate(70.651477 322.182437) scale(0.1 -0.1)">
       <defs>
        <path id="DejaVuSans-30" d="M 2034 4250 
Q 1547 4250 1301 3770 
Q 1056 3291 1056 2328 
Q 1056 1369 1301 889 
Q 1547 409 2034 409 
Q 2525 409 2770 889 
Q 3016 1369 3016 2328 
Q 3016 3291 2770 3770 
Q 2525 4250 2034 4250 
z
M 2034 4750 
Q 2819 4750 3233 4129 
Q 3647 3509 3647 2328 
Q 3647 1150 3233 529 
Q 2819 -91 2034 -91 
Q 1250 -91 836 529 
Q 422 1150 422 2328 
Q 422 3509 836 4129 
Q 1250 4750 2034 4750 
z
" transform="scale(0.015625)"/>
       </defs>
       <use xlink:href="#DejaVuSans-30"/>
      </g>
     </g>
    </g>
    <g id="xtick_2">
     <g id="line2d_2">
      <g>
       <use xlink:href="#maa45b51766" x="128.122785" y="307.584" style="stroke: #000000; stroke-width: 0.8"/>
      </g>
     </g>
     <g id="text_2">
      <!-- 50 -->
      <g transform="translate(121.760285 322.182437) scale(0.1 -0.1)">
       <defs>
        <path id="DejaVuSans-35" d="M 691 4666 
L 3169 4666 
L 3169 4134 
L 1269 4134 
L 1269 2991 
Q 1406 3038 1543 3061 
Q 1681 3084 1819 3084 
Q 2600 3084 3056 2656 
Q 3513 2228 3513 1497 
Q 3513 744 3044 326 
Q 2575 -91 1722 -91 
Q 1428 -91 1123 -41 
Q 819 9 494 109 
L 494 744 
Q 775 591 1075 516 
Q 1375 441 1709 441 
Q 2250 441 2565 725 
Q 2881 1009 2881 1497 
Q 2881 1984 2565 2268 
Q 2250 2553 1709 2553 
Q 1456 2553 1204 2497 
Q 953 2441 691 2322 
L 691 4666 
z
" transform="scale(0.015625)"/>
       </defs>
       <use xlink:href="#DejaVuSans-35"/>
       <use xlink:href="#DejaVuSans-30" x="63.623047"/>
      </g>
     </g>
    </g>
    <g id="xtick_3">
     <g id="line2d_3">
      <g>
       <use xlink:href="#maa45b51766" x="182.412843" y="307.584" style="stroke: #000000; stroke-width: 0.8"/>
      </g>
     </g>
     <g id="text_3">
      <!-- 100 -->
      <g transform="translate(172.869093 322.182437) scale(0.1 -0.1)">
       <defs>
        <path id="DejaVuSans-31" d="M 794 531 
L 1825 531 
L 1825 4091 
L 703 3866 
L 703 4441 
L 1819 4666 
L 2450 4666 
L 2450 531 
L 3481 531 
L 3481 0 
L 794 0 
L 794 531 
z
" transform="scale(0.015625)"/>
       </defs>
       <use xlink:href="#DejaVuSans-31"/>
       <use xlink:href="#DejaVuSans-30" x="63.623047"/>
       <use xlink:href="#DejaVuSans-30" x="127.246094"/>
      </g>
     </g>
    </g>
    <g id="xtick_4">
     <g id="line2d_4">
      <g>
       <use xlink:href="#maa45b51766" x="236.702901" y="307.584" style="stroke: #000000; stroke-width: 0.8"/>
      </g>
     </g>
     <g id="text_4">
      <!-- 150 -->
      <g transform="translate(227.159151 322.182437) scale(0.1 -0.1)">
       <use xlink:href="#DejaVuSans-31"/>
       <use xlink:href="#DejaVuSans-35" x="63.623047"/>
       <use xlink:href="#DejaVuSans-30" x="127.246094"/>
      </g>
     </g>
    </g>
    <g id="xtick_5">
     <g id="line2d_5">
      <g>
       <use xlink:href="#maa45b51766" x="290.992958" y="307.584" style="stroke: #000000; stroke-width: 0.8"/>
      </g>
     </g>
     <g id="text_5">
      <!-- 200 -->
      <g transform="translate(281.449208 322.182437) scale(0.1 -0.1)">
       <defs>
        <path id="DejaVuSans-32" d="M 1228 531 
L 3431 531 
L 3431 0 
L 469 0 
L 469 531 
Q 828 903 1448 1529 
Q 2069 2156 2228 2338 
Q 2531 2678 2651 2914 
Q 2772 3150 2772 3378 
Q 2772 3750 2511 3984 
Q 2250 4219 1831 4219 
Q 1534 4219 1204 4116 
Q 875 4013 500 3803 
L 500 4441 
Q 881 4594 1212 4672 
Q 1544 4750 1819 4750 
Q 2544 4750 2975 4387 
Q 3406 4025 3406 3419 
Q 3406 3131 3298 2873 
Q 3191 2616 2906 2266 
Q 2828 2175 2409 1742 
Q 1991 1309 1228 531 
z
" transform="scale(0.015625)"/>
       </defs>
       <use xlink:href="#DejaVuSans-32"/>
       <use xlink:href="#DejaVuSans-30" x="63.623047"/>
       <use xlink:href="#DejaVuSans-30" x="127.246094"/>
      </g>
     </g>
    </g>
    <g id="xtick_6">
     <g id="line2d_6">
      <g>
       <use xlink:href="#maa45b51766" x="345.283016" y="307.584" style="stroke: #000000; stroke-width: 0.8"/>
      </g>
     </g>
     <g id="text_6">
      <!-- 250 -->
      <g transform="translate(335.739266 322.182437) scale(0.1 -0.1)">
       <use xlink:href="#DejaVuSans-32"/>
       <use xlink:href="#DejaVuSans-35" x="63.623047"/>
       <use xlink:href="#DejaVuSans-30" x="127.246094"/>
      </g>
     </g>
    </g>
    <g id="xtick_7">
     <g id="line2d_7">
      <g>
       <use xlink:href="#maa45b51766" x="399.573074" y="307.584" style="stroke: #000000; stroke-width: 0.8"/>
      </g>
     </g>
     <g id="text_7">
      <!-- 300 -->
      <g transform="translate(390.029324 322.182437) scale(0.1 -0.1)">
       <defs>
        <path id="DejaVuSans-33" d="M 2597 2516 
Q 3050 2419 3304 2112 
Q 3559 1806 3559 1356 
Q 3559 666 3084 287 
Q 2609 -91 1734 -91 
Q 1441 -91 1130 -33 
Q 819 25 488 141 
L 488 750 
Q 750 597 1062 519 
Q 1375 441 1716 441 
Q 2309 441 2620 675 
Q 2931 909 2931 1356 
Q 2931 1769 2642 2001 
Q 2353 2234 1838 2234 
L 1294 2234 
L 1294 2753 
L 1863 2753 
Q 2328 2753 2575 2939 
Q 2822 3125 2822 3475 
Q 2822 3834 2567 4026 
Q 2313 4219 1838 4219 
Q 1578 4219 1281 4162 
Q 984 4106 628 3988 
L 628 4550 
Q 988 4650 1302 4700 
Q 1616 4750 1894 4750 
Q 2613 4750 3031 4423 
Q 3450 4097 3450 3541 
Q 3450 3153 3228 2886 
Q 3006 2619 2597 2516 
z
" transform="scale(0.015625)"/>
       </defs>
       <use xlink:href="#DejaVuSans-33"/>
       <use xlink:href="#DejaVuSans-30" x="63.623047"/>
       <use xlink:href="#DejaVuSans-30" x="127.246094"/>
      </g>
     </g>
    </g>
    <g id="text_8">
     <!-- Epochs -->
     <g transform="translate(218.244375 335.860562) scale(0.1 -0.1)">
      <defs>
       <path id="DejaVuSans-45" d="M 628 4666 
L 3578 4666 
L 3578 4134 
L 1259 4134 
L 1259 2753 
L 3481 2753 
L 3481 2222 
L 1259 2222 
L 1259 531 
L 3634 531 
L 3634 0 
L 628 0 
L 628 4666 
z
" transform="scale(0.015625)"/>
       <path id="DejaVuSans-70" d="M 1159 525 
L 1159 -1331 
L 581 -1331 
L 581 3500 
L 1159 3500 
L 1159 2969 
Q 1341 3281 1617 3432 
Q 1894 3584 2278 3584 
Q 2916 3584 3314 3078 
Q 3713 2572 3713 1747 
Q 3713 922 3314 415 
Q 2916 -91 2278 -91 
Q 1894 -91 1617 61 
Q 1341 213 1159 525 
z
M 3116 1747 
Q 3116 2381 2855 2742 
Q 2594 3103 2138 3103 
Q 1681 3103 1420 2742 
Q 1159 2381 1159 1747 
Q 1159 1113 1420 752 
Q 1681 391 2138 391 
Q 2594 391 2855 752 
Q 3116 1113 3116 1747 
z
" transform="scale(0.015625)"/>
       <path id="DejaVuSans-6f" d="M 1959 3097 
Q 1497 3097 1228 2736 
Q 959 2375 959 1747 
Q 959 1119 1226 758 
Q 1494 397 1959 397 
Q 2419 397 2687 759 
Q 2956 1122 2956 1747 
Q 2956 2369 2687 2733 
Q 2419 3097 1959 3097 
z
M 1959 3584 
Q 2709 3584 3137 3096 
Q 3566 2609 3566 1747 
Q 3566 888 3137 398 
Q 2709 -91 1959 -91 
Q 1206 -91 779 398 
Q 353 888 353 1747 
Q 353 2609 779 3096 
Q 1206 3584 1959 3584 
z
" transform="scale(0.015625)"/>
       <path id="DejaVuSans-63" d="M 3122 3366 
L 3122 2828 
Q 2878 2963 2633 3030 
Q 2388 3097 2138 3097 
Q 1578 3097 1268 2742 
Q 959 2388 959 1747 
Q 959 1106 1268 751 
Q 1578 397 2138 397 
Q 2388 397 2633 464 
Q 2878 531 3122 666 
L 3122 134 
Q 2881 22 2623 -34 
Q 2366 -91 2075 -91 
Q 1284 -91 818 406 
Q 353 903 353 1747 
Q 353 2603 823 3093 
Q 1294 3584 2113 3584 
Q 2378 3584 2631 3529 
Q 2884 3475 3122 3366 
z
" transform="scale(0.015625)"/>
       <path id="DejaVuSans-68" d="M 3513 2113 
L 3513 0 
L 2938 0 
L 2938 2094 
Q 2938 2591 2744 2837 
Q 2550 3084 2163 3084 
Q 1697 3084 1428 2787 
Q 1159 2491 1159 1978 
L 1159 0 
L 581 0 
L 581 4863 
L 1159 4863 
L 1159 2956 
Q 1366 3272 1645 3428 
Q 1925 3584 2291 3584 
Q 2894 3584 3203 3211 
Q 3513 2838 3513 2113 
z
" transform="scale(0.015625)"/>
       <path id="DejaVuSans-73" d="M 2834 3397 
L 2834 2853 
Q 2591 2978 2328 3040 
Q 2066 3103 1784 3103 
Q 1356 3103 1142 2972 
Q 928 2841 928 2578 
Q 928 2378 1081 2264 
Q 1234 2150 1697 2047 
L 1894 2003 
Q 2506 1872 2764 1633 
Q 3022 1394 3022 966 
Q 3022 478 2636 193 
Q 2250 -91 1575 -91 
Q 1294 -91 989 -36 
Q 684 19 347 128 
L 347 722 
Q 666 556 975 473 
Q 1284 391 1588 391 
Q 1994 391 2212 530 
Q 2431 669 2431 922 
Q 2431 1156 2273 1281 
Q 2116 1406 1581 1522 
L 1381 1569 
Q 847 1681 609 1914 
Q 372 2147 372 2553 
Q 372 3047 722 3315 
Q 1072 3584 1716 3584 
Q 2034 3584 2315 3537 
Q 2597 3491 2834 3397 
z
" transform="scale(0.015625)"/>
      </defs>
      <use xlink:href="#DejaVuSans-45"/>
      <use xlink:href="#DejaVuSans-70" x="63.183594"/>
      <use xlink:href="#DejaVuSans-6f" x="126.660156"/>
      <use xlink:href="#DejaVuSans-63" x="187.841797"/>
      <use xlink:href="#DejaVuSans-68" x="242.822266"/>
      <use xlink:href="#DejaVuSans-73" x="306.201172"/>
     </g>
    </g>
   </g>
   <g id="matplotlib.axis_2">
    <g id="ytick_1">
     <g id="line2d_8">
      <defs>
       <path id="m56db5dffb7" d="M 0 0 
L -3.5 0 
" style="stroke: #000000; stroke-width: 0.8"/>
      </defs>
      <g>
       <use xlink:href="#m56db5dffb7" x="57.6" y="298.25065" style="stroke: #000000; stroke-width: 0.8"/>
      </g>
     </g>
     <g id="text_9">
      <!-- 0 -->
      <g transform="translate(44.2375 302.049869) scale(0.1 -0.1)">
       <use xlink:href="#DejaVuSans-30"/>
      </g>
     </g>
    </g>
    <g id="ytick_2">
     <g id="line2d_9">
      <g>
       <use xlink:href="#m56db5dffb7" x="57.6" y="242.173632" style="stroke: #000000; stroke-width: 0.8"/>
      </g>
     </g>
     <g id="text_10">
      <!-- 1 -->
      <g transform="translate(44.2375 245.972851) scale(0.1 -0.1)">
       <use xlink:href="#DejaVuSans-31"/>
      </g>
     </g>
    </g>
    <g id="ytick_3">
     <g id="line2d_10">
      <g>
       <use xlink:href="#m56db5dffb7" x="57.6" y="186.096613" style="stroke: #000000; stroke-width: 0.8"/>
      </g>
     </g>
     <g id="text_11">
      <!-- 2 -->
      <g transform="translate(44.2375 189.895832) scale(0.1 -0.1)">
       <use xlink:href="#DejaVuSans-32"/>
      </g>
     </g>
    </g>
    <g id="ytick_4">
     <g id="line2d_11">
      <g>
       <use xlink:href="#m56db5dffb7" x="57.6" y="130.019595" style="stroke: #000000; stroke-width: 0.8"/>
      </g>
     </g>
     <g id="text_12">
      <!-- 3 -->
      <g transform="translate(44.2375 133.818814) scale(0.1 -0.1)">
       <use xlink:href="#DejaVuSans-33"/>
      </g>
     </g>
    </g>
    <g id="ytick_5">
     <g id="line2d_12">
      <g>
       <use xlink:href="#m56db5dffb7" x="57.6" y="73.942577" style="stroke: #000000; stroke-width: 0.8"/>
      </g>
     </g>
     <g id="text_13">
      <!-- 4 -->
      <g transform="translate(44.2375 77.741795) scale(0.1 -0.1)">
       <defs>
        <path id="DejaVuSans-34" d="M 2419 4116 
L 825 1625 
L 2419 1625 
L 2419 4116 
z
M 2253 4666 
L 3047 4666 
L 3047 1625 
L 3713 1625 
L 3713 1100 
L 3047 1100 
L 3047 0 
L 2419 0 
L 2419 1100 
L 313 1100 
L 313 1709 
L 2253 4666 
z
" transform="scale(0.015625)"/>
       </defs>
       <use xlink:href="#DejaVuSans-34"/>
      </g>
     </g>
    </g>
    <g id="text_14">
     <!-- Loss -->
     <g transform="translate(38.157812 185.495187) rotate(-90) scale(0.1 -0.1)">
      <defs>
       <path id="DejaVuSans-4c" d="M 628 4666 
L 1259 4666 
L 1259 531 
L 3531 531 
L 3531 0 
L 628 0 
L 628 4666 
z
" transform="scale(0.015625)"/>
      </defs>
      <use xlink:href="#DejaVuSans-4c"/>
      <use xlink:href="#DejaVuSans-6f" x="53.962891"/>
      <use xlink:href="#DejaVuSans-73" x="115.144531"/>
      <use xlink:href="#DejaVuSans-73" x="167.244141"/>
     </g>
    </g>
   </g>
   <g id="line2d_13">
    <path d="M 73.832727 218.302103 
L 76.00433 180.995146 
L 77.090131 195.240594 
L 78.175932 201.781596 
L 79.261733 188.04028 
L 83.604938 111.526898 
L 84.690739 99.293909 
L 85.77654 85.315898 
L 86.862341 88.765245 
L 87.948142 71.984826 
L 89.033943 75.200751 
L 90.119745 58.420178 
L 91.205546 61.247908 
L 92.291347 65.12814 
L 93.377148 54.475984 
L 94.462949 56.405533 
L 95.54875 62.328533 
L 96.634552 53.568 
L 97.720353 62.097315 
L 98.806154 69.322506 
L 99.891955 68.544328 
L 100.977756 74.929363 
L 102.063557 65.308518 
L 103.149358 67.496351 
L 104.23516 69.356237 
L 105.320961 74.619848 
L 108.578364 97.668713 
L 109.664165 93.117328 
L 111.835768 104.474752 
L 112.921569 103.217571 
L 114.00737 110.747036 
L 115.093171 117.318379 
L 116.178972 114.483136 
L 117.264773 113.913446 
L 118.350575 121.413256 
L 119.436376 127.064505 
L 120.522177 129.825385 
L 121.607978 130.466368 
L 122.693779 135.480194 
L 123.77958 137.233537 
L 124.865382 134.623171 
L 125.951183 129.65442 
L 127.036984 128.783567 
L 128.122785 135.80061 
L 129.208586 134.695194 
L 130.294387 145.964891 
L 131.380189 145.461104 
L 132.46599 145.182073 
L 133.551791 141.455544 
L 134.637592 141.582187 
L 135.723393 152.590687 
L 136.809194 156.86669 
L 137.894995 156.652254 
L 138.980797 161.362578 
L 140.066598 162.822578 
L 141.152399 155.658647 
L 142.2382 157.821812 
L 143.324001 163.535374 
L 144.409802 162.749568 
L 145.495604 162.549213 
L 146.581405 171.151218 
L 147.667206 170.183643 
L 148.753007 166.709203 
L 149.838808 163.745712 
L 150.924609 166.027172 
L 152.01041 165.402324 
L 153.096212 170.15935 
L 154.182013 170.28166 
L 155.267814 173.31131 
L 156.353615 169.425678 
L 157.439416 172.20249 
L 158.525217 176.168557 
L 159.611019 175.267967 
L 160.69682 178.449931 
L 161.782621 176.286168 
L 162.868422 179.74073 
L 163.954223 178.066497 
L 165.040024 181.685421 
L 166.125825 180.135621 
L 167.211627 183.082781 
L 168.297428 176.002762 
L 169.383229 184.695055 
L 170.46903 185.359193 
L 171.554831 183.246762 
L 172.640632 184.84654 
L 173.726434 181.034437 
L 174.812235 180.48148 
L 175.898036 181.845077 
L 176.983837 186.204853 
L 178.069638 185.713845 
L 179.155439 184.044675 
L 180.24124 187.285103 
L 181.327042 185.520697 
L 182.412843 189.41314 
L 183.498644 190.155256 
L 184.584445 193.052862 
L 185.670246 190.527759 
L 186.756047 191.468501 
L 187.841849 192.205829 
L 188.92765 194.15465 
L 190.013451 192.762609 
L 191.099252 192.420023 
L 192.185053 191.644036 
L 193.270854 196.639522 
L 194.356656 197.104947 
L 195.442457 196.059136 
L 196.528258 200.586219 
L 197.614059 203.571787 
L 198.69986 200.889251 
L 199.785661 195.195706 
L 200.871462 199.289413 
L 201.957264 197.36638 
L 203.043065 196.728267 
L 204.128866 197.41342 
L 205.214667 196.537557 
L 206.300468 199.024598 
L 207.386269 200.526199 
L 208.472071 194.689476 
L 209.557872 195.774873 
L 210.643673 198.962604 
L 211.729474 198.087252 
L 212.815275 203.499846 
L 213.901076 204.601387 
L 214.986877 206.090354 
L 216.072679 204.958536 
L 217.15848 208.151614 
L 218.244281 212.280901 
L 220.415883 208.664106 
L 221.501684 206.225121 
L 222.587486 210.726109 
L 223.673287 211.445086 
L 224.759088 215.721357 
L 225.844889 215.912176 
L 226.93069 213.686886 
L 228.016491 218.729219 
L 229.102292 217.381896 
L 230.188094 211.572743 
L 231.273895 214.528601 
L 232.359696 208.417831 
L 233.445497 211.814847 
L 234.531298 213.49648 
L 235.617099 212.801667 
L 236.702901 211.53189 
L 237.788702 216.088647 
L 238.874503 217.588856 
L 239.960304 217.307561 
L 241.046105 221.693398 
L 242.131906 222.827112 
L 243.217708 222.967798 
L 244.303509 223.48292 
L 245.38931 221.164918 
L 246.475111 224.639541 
L 247.560912 228.892762 
L 248.646713 238.509896 
L 249.732514 208.546717 
L 250.818316 217.35024 
L 251.904117 215.837372 
L 252.989918 217.016097 
L 254.075719 222.283502 
L 255.16152 218.337239 
L 256.247321 218.858131 
L 257.333123 225.040757 
L 258.418924 225.661361 
L 259.504725 222.636322 
L 260.590526 222.342564 
L 261.676327 226.912437 
L 262.762128 226.835236 
L 263.847929 226.932228 
L 264.933731 225.776384 
L 266.019532 222.450165 
L 268.191134 227.630107 
L 269.276935 227.879568 
L 270.362736 226.042928 
L 271.448538 233.279456 
L 272.534339 237.392662 
L 273.62014 219.424508 
L 274.705941 225.495802 
L 275.791742 228.638008 
L 276.877543 225.68023 
L 277.963344 224.104057 
L 279.049146 230.092829 
L 280.134947 231.432324 
L 281.220748 228.940865 
L 282.306549 227.402946 
L 283.39235 228.352143 
L 284.478151 228.993916 
L 285.563953 230.142653 
L 286.649754 229.37993 
L 287.735555 230.79715 
L 288.821356 228.795335 
L 289.907157 229.933207 
L 290.992958 229.151401 
L 292.07876 234.230254 
L 293.164561 236.467185 
L 294.250362 232.281676 
L 295.336163 231.928808 
L 296.421964 232.429455 
L 298.593566 232.837984 
L 299.679368 235.520678 
L 300.765169 234.084072 
L 301.85097 234.316491 
L 302.936771 229.968042 
L 304.022572 233.272818 
L 305.108373 233.662754 
L 306.194175 237.127769 
L 307.279976 237.022252 
L 308.365777 235.584238 
L 309.451578 231.913731 
L 310.537379 236.367606 
L 311.62318 234.282538 
L 312.708981 233.56742 
L 313.794783 235.620101 
L 314.880584 238.733562 
L 315.966385 236.876112 
L 318.137987 235.911615 
L 319.223788 235.270098 
L 320.30959 236.771206 
L 321.395391 239.779291 
L 322.481192 240.190204 
L 323.566993 239.010684 
L 324.652794 238.59818 
L 325.738595 232.386768 
L 326.824396 233.659319 
L 327.910198 237.119643 
L 328.995999 234.891818 
L 330.0818 235.495134 
L 331.167601 235.739168 
L 333.339203 236.957297 
L 334.425005 234.905775 
L 335.510806 236.946076 
L 336.596607 239.729754 
L 337.682408 237.429527 
L 339.85401 241.174073 
L 340.939811 240.201262 
L 342.025613 241.283051 
L 343.111414 240.428467 
L 344.197215 241.985102 
L 345.283016 239.298474 
L 346.368817 240.796972 
L 347.454618 241.429824 
L 348.54042 244.076172 
L 349.626221 242.411699 
L 350.712022 241.917325 
L 351.797823 241.966265 
L 352.883624 243.734629 
L 353.969425 242.86127 
L 355.055227 243.260815 
L 356.141028 243.472913 
L 357.226829 243.423675 
L 358.31263 244.018043 
L 359.398431 243.93887 
L 360.484232 241.597386 
L 361.570033 243.970777 
L 362.655835 240.980503 
L 363.741636 243.847988 
L 364.827437 245.658513 
L 365.913238 244.28659 
L 366.999039 245.428453 
L 368.08484 244.128589 
L 369.170642 245.315022 
L 370.256443 244.434151 
L 371.342244 245.725117 
L 372.428045 245.508172 
L 373.513846 243.929086 
L 374.599647 245.948708 
L 375.685448 244.83313 
L 376.77125 244.523712 
L 377.857051 245.318476 
L 378.942852 242.230179 
L 381.114454 245.237931 
L 382.200255 243.654424 
L 383.286057 245.186813 
L 384.371858 245.761704 
L 385.457659 245.83195 
L 386.54346 244.751838 
L 387.629261 245.840891 
L 388.715062 245.838727 
L 389.800863 245.421743 
L 390.886665 246.03845 
L 391.972466 245.54227 
L 393.058267 247.665933 
L 394.144068 246.533471 
L 395.229869 247.206595 
L 396.31567 245.485328 
L 397.401472 247.218467 
L 398.487273 247.084525 
L 398.487273 247.084525 
" clip-path="url(#p9f39248667)" style="fill: none; stroke: #1f77b4; stroke-width: 1.5; stroke-linecap: square"/>
   </g>
   <g id="line2d_14">
    <path d="M 73.832727 274.681635 
L 76.00433 289.131986 
L 77.090131 287.205392 
L 78.175932 287.148138 
L 79.261733 289.489778 
L 80.347534 290.961558 
L 82.519137 292.824519 
L 83.604938 293.89501 
L 84.690739 294.332098 
L 85.77654 294.137168 
L 86.862341 294.275802 
L 87.948142 294.562833 
L 89.033943 294.637379 
L 90.119745 295.258401 
L 91.205546 295.101751 
L 92.291347 294.832071 
L 93.377148 295.488 
L 94.462949 295.429498 
L 95.54875 295.046133 
L 96.634552 294.92973 
L 97.720353 294.346571 
L 100.977756 294.212813 
L 102.063557 294.079127 
L 103.149358 293.276508 
L 104.23516 293.26869 
L 105.320961 292.861823 
L 106.406762 292.039018 
L 107.492563 291.589117 
L 108.578364 291.014878 
L 109.664165 290.786436 
L 111.835768 290.09959 
L 112.921569 290.377058 
L 114.00737 289.430169 
L 116.178972 288.777306 
L 117.264773 288.797253 
L 118.350575 288.11692 
L 119.436376 287.787266 
L 120.522177 287.814796 
L 121.607978 287.525704 
L 122.693779 286.894583 
L 123.77958 287.170325 
L 124.865382 287.170979 
L 125.951183 287.734291 
L 127.036984 288.151409 
L 128.122785 287.211307 
L 129.208586 287.086936 
L 130.294387 285.368201 
L 131.380189 286.162057 
L 132.46599 285.716337 
L 133.551791 287.269554 
L 134.637592 285.949694 
L 135.723393 284.147695 
L 137.894995 283.584659 
L 138.980797 283.541241 
L 140.066598 283.895126 
L 141.152399 284.856005 
L 142.2382 283.98819 
L 143.324001 283.282861 
L 144.409802 283.707889 
L 145.495604 283.319328 
L 146.581405 281.567033 
L 147.667206 282.125383 
L 148.753007 283.354529 
L 149.838808 283.79041 
L 150.924609 283.178965 
L 152.01041 282.892655 
L 153.096212 281.978086 
L 154.182013 281.610237 
L 155.267814 282.281349 
L 156.353615 282.764641 
L 157.439416 281.930964 
L 158.525217 281.699212 
L 160.69682 280.689369 
L 161.782621 281.144084 
L 162.868422 281.436678 
L 165.040024 280.611662 
L 166.125825 281.470558 
L 167.211627 280.663572 
L 168.297428 282.145097 
L 169.383229 280.252589 
L 171.554831 280.962427 
L 172.640632 279.905221 
L 173.726434 281.491096 
L 174.812235 281.083847 
L 175.898036 280.942275 
L 176.983837 279.810227 
L 178.069638 279.970545 
L 179.155439 280.993433 
L 180.24124 279.643921 
L 181.327042 279.707495 
L 182.412843 279.464794 
L 183.498644 279.662783 
L 184.584445 278.495385 
L 186.756047 279.605279 
L 187.841849 279.544352 
L 188.92765 277.887259 
L 190.013451 279.042247 
L 191.099252 278.690757 
L 192.185053 278.679457 
L 193.270854 277.661272 
L 194.356656 278.366315 
L 195.442457 278.397643 
L 196.528258 276.727404 
L 197.614059 276.157662 
L 198.69986 277.649621 
L 199.785661 279.842289 
L 200.871462 278.099473 
L 201.957264 278.471109 
L 203.043065 278.26152 
L 204.128866 277.932632 
L 205.214667 278.51008 
L 206.300468 277.313856 
L 207.386269 277.87392 
L 208.472071 279.450876 
L 209.557872 278.806246 
L 210.643673 277.513144 
L 211.729474 277.436779 
L 212.815275 276.14017 
L 213.901076 276.649671 
L 214.986877 275.974162 
L 216.072679 276.428164 
L 218.244281 274.361846 
L 219.330082 274.774435 
L 221.501684 276.483689 
L 222.587486 275.282616 
L 223.673287 274.975571 
L 224.759088 273.663119 
L 225.844889 273.427458 
L 226.93069 273.8862 
L 228.016491 271.996206 
L 229.102292 273.322616 
L 230.188094 275.122617 
L 231.273895 274.202464 
L 232.359696 275.705429 
L 233.445497 274.690418 
L 234.531298 274.910128 
L 235.617099 274.429725 
L 236.702901 274.224105 
L 237.788702 273.314295 
L 239.960304 273.468423 
L 241.046105 272.308129 
L 242.131906 271.444884 
L 244.303509 271.595485 
L 245.38931 271.898848 
L 246.475111 271.275974 
L 247.560912 265.918821 
L 248.646713 265.188822 
L 249.732514 277.535341 
L 250.818316 273.479225 
L 251.904117 274.361393 
L 252.989918 273.613613 
L 254.075719 271.807737 
L 255.16152 273.323045 
L 256.247321 272.885189 
L 257.333123 270.733743 
L 258.418924 271.076215 
L 259.504725 271.674491 
L 260.590526 271.42283 
L 261.676327 269.793077 
L 262.762128 270.515137 
L 263.847929 270.704655 
L 264.933731 271.281558 
L 266.019532 272.598671 
L 267.105333 271.504041 
L 268.191134 271.247777 
L 269.276935 270.798404 
L 270.362736 271.068241 
L 271.448538 264.612334 
L 272.534339 267.18021 
L 273.62014 273.655026 
L 274.705941 271.392767 
L 275.791742 270.757431 
L 276.877543 271.596505 
L 277.963344 271.665191 
L 279.049146 269.281195 
L 280.134947 269.174976 
L 281.220748 270.70393 
L 282.306549 270.432746 
L 283.39235 269.978411 
L 284.478151 270.601581 
L 285.563953 270.226534 
L 286.649754 271.072628 
L 287.735555 269.626676 
L 288.821356 270.964892 
L 289.907157 270.79705 
L 290.992958 270.332007 
L 292.07876 268.067234 
L 293.164561 267.444268 
L 294.250362 269.735158 
L 295.336163 269.328156 
L 297.507765 269.25409 
L 299.679368 268.111074 
L 300.765169 268.732365 
L 301.85097 268.851214 
L 302.936771 269.907739 
L 304.022572 268.883508 
L 305.108373 269.080753 
L 306.194175 267.367599 
L 307.279976 267.38428 
L 308.365777 268.575293 
L 309.451578 269.436906 
L 310.537379 267.286976 
L 311.62318 268.347793 
L 312.708981 268.502826 
L 313.794783 268.027205 
L 314.880584 267.070043 
L 317.052186 268.106682 
L 318.137987 267.980324 
L 319.223788 268.354802 
L 321.395391 266.722462 
L 322.481192 266.579275 
L 323.566993 267.10497 
L 324.652794 267.807399 
L 325.738595 270.27743 
L 326.824396 269.086268 
L 327.910198 268.289539 
L 328.995999 268.839311 
L 331.167601 268.16755 
L 332.253402 268.045147 
L 333.339203 268.195259 
L 334.425005 268.985318 
L 335.510806 267.66944 
L 336.596607 266.797595 
L 337.682408 267.778329 
L 338.768209 267.594267 
L 339.85401 266.103381 
L 340.939811 266.740683 
L 342.025613 265.615577 
L 343.111414 266.675635 
L 344.197215 266.232208 
L 345.283016 267.282026 
L 346.368817 266.408735 
L 347.454618 266.490771 
L 348.54042 265.552121 
L 349.626221 266.212789 
L 350.712022 266.665374 
L 351.797823 266.477526 
L 352.883624 265.352669 
L 353.969425 265.915562 
L 355.055227 265.716996 
L 356.141028 265.256527 
L 357.226829 265.267009 
L 358.31263 264.947224 
L 359.398431 265.352022 
L 360.484232 266.664759 
L 361.570033 265.129537 
L 362.655835 266.458313 
L 363.741636 265.324723 
L 364.827437 265.24797 
L 365.913238 266.061266 
L 368.08484 265.62354 
L 369.170642 264.988476 
L 370.256443 265.50511 
L 372.428045 264.798231 
L 373.513846 265.365374 
L 374.599647 265.260422 
L 375.685448 265.876006 
L 376.77125 265.618954 
L 377.857051 265.559738 
L 378.942852 266.503002 
L 380.028653 266.237044 
L 381.114454 265.408074 
L 382.200255 266.129001 
L 383.286057 264.950352 
L 384.371858 265.275361 
L 385.457659 264.762629 
L 386.54346 265.294297 
L 388.715062 265.384472 
L 389.800863 264.995722 
L 390.886665 264.324856 
L 391.972466 264.865328 
L 393.058267 264.56421 
L 394.144068 264.857356 
L 395.229869 264.853376 
L 396.31567 265.402327 
L 397.401472 265.161917 
L 398.487273 264.275283 
L 398.487273 264.275283 
" clip-path="url(#p9f39248667)" style="fill: none; stroke: #ff7f0e; stroke-width: 1.5; stroke-linecap: square"/>
   </g>
   <g id="patch_3">
    <path d="M 57.6 307.584 
L 57.6 41.472 
" style="fill: none; stroke: #000000; stroke-width: 0.8; stroke-linejoin: miter; stroke-linecap: square"/>
   </g>
   <g id="patch_4">
    <path d="M 414.72 307.584 
L 414.72 41.472 
" style="fill: none; stroke: #000000; stroke-width: 0.8; stroke-linejoin: miter; stroke-linecap: square"/>
   </g>
   <g id="patch_5">
    <path d="M 57.6 307.584 
L 414.72 307.584 
" style="fill: none; stroke: #000000; stroke-width: 0.8; stroke-linejoin: miter; stroke-linecap: square"/>
   </g>
   <g id="patch_6">
    <path d="M 57.6 41.472 
L 414.72 41.472 
" style="fill: none; stroke: #000000; stroke-width: 0.8; stroke-linejoin: miter; stroke-linecap: square"/>
   </g>
   <g id="text_15">
    <!-- Generator &amp; Discriminator Loss -->
    <g transform="translate(141.805313 35.472) scale(0.12 -0.12)">
     <defs>
      <path id="DejaVuSans-47" d="M 3809 666 
L 3809 1919 
L 2778 1919 
L 2778 2438 
L 4434 2438 
L 4434 434 
Q 4069 175 3628 42 
Q 3188 -91 2688 -91 
Q 1594 -91 976 548 
Q 359 1188 359 2328 
Q 359 3472 976 4111 
Q 1594 4750 2688 4750 
Q 3144 4750 3555 4637 
Q 3966 4525 4313 4306 
L 4313 3634 
Q 3963 3931 3569 4081 
Q 3175 4231 2741 4231 
Q 1884 4231 1454 3753 
Q 1025 3275 1025 2328 
Q 1025 1384 1454 906 
Q 1884 428 2741 428 
Q 3075 428 3337 486 
Q 3600 544 3809 666 
z
" transform="scale(0.015625)"/>
      <path id="DejaVuSans-65" d="M 3597 1894 
L 3597 1613 
L 953 1613 
Q 991 1019 1311 708 
Q 1631 397 2203 397 
Q 2534 397 2845 478 
Q 3156 559 3463 722 
L 3463 178 
Q 3153 47 2828 -22 
Q 2503 -91 2169 -91 
Q 1331 -91 842 396 
Q 353 884 353 1716 
Q 353 2575 817 3079 
Q 1281 3584 2069 3584 
Q 2775 3584 3186 3129 
Q 3597 2675 3597 1894 
z
M 3022 2063 
Q 3016 2534 2758 2815 
Q 2500 3097 2075 3097 
Q 1594 3097 1305 2825 
Q 1016 2553 972 2059 
L 3022 2063 
z
" transform="scale(0.015625)"/>
      <path id="DejaVuSans-6e" d="M 3513 2113 
L 3513 0 
L 2938 0 
L 2938 2094 
Q 2938 2591 2744 2837 
Q 2550 3084 2163 3084 
Q 1697 3084 1428 2787 
Q 1159 2491 1159 1978 
L 1159 0 
L 581 0 
L 581 3500 
L 1159 3500 
L 1159 2956 
Q 1366 3272 1645 3428 
Q 1925 3584 2291 3584 
Q 2894 3584 3203 3211 
Q 3513 2838 3513 2113 
z
" transform="scale(0.015625)"/>
      <path id="DejaVuSans-72" d="M 2631 2963 
Q 2534 3019 2420 3045 
Q 2306 3072 2169 3072 
Q 1681 3072 1420 2755 
Q 1159 2438 1159 1844 
L 1159 0 
L 581 0 
L 581 3500 
L 1159 3500 
L 1159 2956 
Q 1341 3275 1631 3429 
Q 1922 3584 2338 3584 
Q 2397 3584 2469 3576 
Q 2541 3569 2628 3553 
L 2631 2963 
z
" transform="scale(0.015625)"/>
      <path id="DejaVuSans-61" d="M 2194 1759 
Q 1497 1759 1228 1600 
Q 959 1441 959 1056 
Q 959 750 1161 570 
Q 1363 391 1709 391 
Q 2188 391 2477 730 
Q 2766 1069 2766 1631 
L 2766 1759 
L 2194 1759 
z
M 3341 1997 
L 3341 0 
L 2766 0 
L 2766 531 
Q 2569 213 2275 61 
Q 1981 -91 1556 -91 
Q 1019 -91 701 211 
Q 384 513 384 1019 
Q 384 1609 779 1909 
Q 1175 2209 1959 2209 
L 2766 2209 
L 2766 2266 
Q 2766 2663 2505 2880 
Q 2244 3097 1772 3097 
Q 1472 3097 1187 3025 
Q 903 2953 641 2809 
L 641 3341 
Q 956 3463 1253 3523 
Q 1550 3584 1831 3584 
Q 2591 3584 2966 3190 
Q 3341 2797 3341 1997 
z
" transform="scale(0.015625)"/>
      <path id="DejaVuSans-74" d="M 1172 4494 
L 1172 3500 
L 2356 3500 
L 2356 3053 
L 1172 3053 
L 1172 1153 
Q 1172 725 1289 603 
Q 1406 481 1766 481 
L 2356 481 
L 2356 0 
L 1766 0 
Q 1100 0 847 248 
Q 594 497 594 1153 
L 594 3053 
L 172 3053 
L 172 3500 
L 594 3500 
L 594 4494 
L 1172 4494 
z
" transform="scale(0.015625)"/>
      <path id="DejaVuSans-20" transform="scale(0.015625)"/>
      <path id="DejaVuSans-26" d="M 1556 2509 
Q 1272 2256 1139 2004 
Q 1006 1753 1006 1478 
Q 1006 1022 1337 719 
Q 1669 416 2169 416 
Q 2466 416 2725 514 
Q 2984 613 3213 813 
L 1556 2509 
z
M 1997 2859 
L 3584 1234 
Q 3769 1513 3872 1830 
Q 3975 2147 3994 2503 
L 4575 2503 
Q 4538 2091 4375 1687 
Q 4213 1284 3922 891 
L 4794 0 
L 4006 0 
L 3559 459 
Q 3234 181 2878 45 
Q 2522 -91 2113 -91 
Q 1359 -91 881 339 
Q 403 769 403 1441 
Q 403 1841 612 2192 
Q 822 2544 1241 2853 
Q 1091 3050 1012 3245 
Q 934 3441 934 3628 
Q 934 4134 1281 4442 
Q 1628 4750 2203 4750 
Q 2463 4750 2720 4694 
Q 2978 4638 3244 4525 
L 3244 3956 
Q 2972 4103 2725 4179 
Q 2478 4256 2266 4256 
Q 1938 4256 1733 4082 
Q 1528 3909 1528 3634 
Q 1528 3475 1620 3314 
Q 1713 3153 1997 2859 
z
" transform="scale(0.015625)"/>
      <path id="DejaVuSans-44" d="M 1259 4147 
L 1259 519 
L 2022 519 
Q 2988 519 3436 956 
Q 3884 1394 3884 2338 
Q 3884 3275 3436 3711 
Q 2988 4147 2022 4147 
L 1259 4147 
z
M 628 4666 
L 1925 4666 
Q 3281 4666 3915 4102 
Q 4550 3538 4550 2338 
Q 4550 1131 3912 565 
Q 3275 0 1925 0 
L 628 0 
L 628 4666 
z
" transform="scale(0.015625)"/>
      <path id="DejaVuSans-69" d="M 603 3500 
L 1178 3500 
L 1178 0 
L 603 0 
L 603 3500 
z
M 603 4863 
L 1178 4863 
L 1178 4134 
L 603 4134 
L 603 4863 
z
" transform="scale(0.015625)"/>
      <path id="DejaVuSans-6d" d="M 3328 2828 
Q 3544 3216 3844 3400 
Q 4144 3584 4550 3584 
Q 5097 3584 5394 3201 
Q 5691 2819 5691 2113 
L 5691 0 
L 5113 0 
L 5113 2094 
Q 5113 2597 4934 2840 
Q 4756 3084 4391 3084 
Q 3944 3084 3684 2787 
Q 3425 2491 3425 1978 
L 3425 0 
L 2847 0 
L 2847 2094 
Q 2847 2600 2669 2842 
Q 2491 3084 2119 3084 
Q 1678 3084 1418 2786 
Q 1159 2488 1159 1978 
L 1159 0 
L 581 0 
L 581 3500 
L 1159 3500 
L 1159 2956 
Q 1356 3278 1631 3431 
Q 1906 3584 2284 3584 
Q 2666 3584 2933 3390 
Q 3200 3197 3328 2828 
z
" transform="scale(0.015625)"/>
     </defs>
     <use xlink:href="#DejaVuSans-47"/>
     <use xlink:href="#DejaVuSans-65" x="77.490234"/>
     <use xlink:href="#DejaVuSans-6e" x="139.013672"/>
     <use xlink:href="#DejaVuSans-65" x="202.392578"/>
     <use xlink:href="#DejaVuSans-72" x="263.916016"/>
     <use xlink:href="#DejaVuSans-61" x="305.029297"/>
     <use xlink:href="#DejaVuSans-74" x="366.308594"/>
     <use xlink:href="#DejaVuSans-6f" x="405.517578"/>
     <use xlink:href="#DejaVuSans-72" x="466.699219"/>
     <use xlink:href="#DejaVuSans-20" x="507.8125"/>
     <use xlink:href="#DejaVuSans-26" x="539.599609"/>
     <use xlink:href="#DejaVuSans-20" x="617.578125"/>
     <use xlink:href="#DejaVuSans-44" x="649.365234"/>
     <use xlink:href="#DejaVuSans-69" x="726.367188"/>
     <use xlink:href="#DejaVuSans-73" x="754.150391"/>
     <use xlink:href="#DejaVuSans-63" x="806.25"/>
     <use xlink:href="#DejaVuSans-72" x="861.230469"/>
     <use xlink:href="#DejaVuSans-69" x="902.34375"/>
     <use xlink:href="#DejaVuSans-6d" x="930.126953"/>
     <use xlink:href="#DejaVuSans-69" x="1027.539062"/>
     <use xlink:href="#DejaVuSans-6e" x="1055.322266"/>
     <use xlink:href="#DejaVuSans-61" x="1118.701172"/>
     <use xlink:href="#DejaVuSans-74" x="1179.980469"/>
     <use xlink:href="#DejaVuSans-6f" x="1219.189453"/>
     <use xlink:href="#DejaVuSans-72" x="1280.371094"/>
     <use xlink:href="#DejaVuSans-20" x="1321.484375"/>
     <use xlink:href="#DejaVuSans-4c" x="1353.271484"/>
     <use xlink:href="#DejaVuSans-6f" x="1407.234375"/>
     <use xlink:href="#DejaVuSans-73" x="1468.416016"/>
     <use xlink:href="#DejaVuSans-73" x="1520.515625"/>
    </g>
   </g>
   <g id="legend_1">
    <g id="patch_7">
     <path d="M 283.398125 78.82825 
L 407.72 78.82825 
Q 409.72 78.82825 409.72 76.82825 
L 409.72 48.472 
Q 409.72 46.472 407.72 46.472 
L 283.398125 46.472 
Q 281.398125 46.472 281.398125 48.472 
L 281.398125 76.82825 
Q 281.398125 78.82825 283.398125 78.82825 
z
" style="fill: #ffffff; opacity: 0.8; stroke: #cccccc; stroke-linejoin: miter"/>
    </g>
    <g id="line2d_15">
     <path d="M 285.398125 54.570437 
L 295.398125 54.570437 
L 305.398125 54.570437 
" style="fill: none; stroke: #1f77b4; stroke-width: 1.5; stroke-linecap: square"/>
    </g>
    <g id="text_16">
     <!-- Generator Loss -->
     <g transform="translate(313.398125 58.070437) scale(0.1 -0.1)">
      <use xlink:href="#DejaVuSans-47"/>
      <use xlink:href="#DejaVuSans-65" x="77.490234"/>
      <use xlink:href="#DejaVuSans-6e" x="139.013672"/>
      <use xlink:href="#DejaVuSans-65" x="202.392578"/>
      <use xlink:href="#DejaVuSans-72" x="263.916016"/>
      <use xlink:href="#DejaVuSans-61" x="305.029297"/>
      <use xlink:href="#DejaVuSans-74" x="366.308594"/>
      <use xlink:href="#DejaVuSans-6f" x="405.517578"/>
      <use xlink:href="#DejaVuSans-72" x="466.699219"/>
      <use xlink:href="#DejaVuSans-20" x="507.8125"/>
      <use xlink:href="#DejaVuSans-4c" x="539.599609"/>
      <use xlink:href="#DejaVuSans-6f" x="593.5625"/>
      <use xlink:href="#DejaVuSans-73" x="654.744141"/>
      <use xlink:href="#DejaVuSans-73" x="706.84375"/>
     </g>
    </g>
    <g id="line2d_16">
     <path d="M 285.398125 69.248562 
L 295.398125 69.248562 
L 305.398125 69.248562 
" style="fill: none; stroke: #ff7f0e; stroke-width: 1.5; stroke-linecap: square"/>
    </g>
    <g id="text_17">
     <!-- Discriminator Loss -->
     <g transform="translate(313.398125 72.748562) scale(0.1 -0.1)">
      <use xlink:href="#DejaVuSans-44"/>
      <use xlink:href="#DejaVuSans-69" x="77.001953"/>
      <use xlink:href="#DejaVuSans-73" x="104.785156"/>
      <use xlink:href="#DejaVuSans-63" x="156.884766"/>
      <use xlink:href="#DejaVuSans-72" x="211.865234"/>
      <use xlink:href="#DejaVuSans-69" x="252.978516"/>
      <use xlink:href="#DejaVuSans-6d" x="280.761719"/>
      <use xlink:href="#DejaVuSans-69" x="378.173828"/>
      <use xlink:href="#DejaVuSans-6e" x="405.957031"/>
      <use xlink:href="#DejaVuSans-61" x="469.335938"/>
      <use xlink:href="#DejaVuSans-74" x="530.615234"/>
      <use xlink:href="#DejaVuSans-6f" x="569.824219"/>
      <use xlink:href="#DejaVuSans-72" x="631.005859"/>
      <use xlink:href="#DejaVuSans-20" x="672.119141"/>
      <use xlink:href="#DejaVuSans-4c" x="703.90625"/>
      <use xlink:href="#DejaVuSans-6f" x="757.869141"/>
      <use xlink:href="#DejaVuSans-73" x="819.050781"/>
      <use xlink:href="#DejaVuSans-73" x="871.150391"/>
     </g>
    </g>
   </g>
  </g>
 </g>
 <defs>
  <clipPath id="p9f39248667">
   <rect x="57.6" y="41.472" width="357.12" height="266.112"/>
  </clipPath>
 </defs>
</svg>
